<?xml version="1.0" encoding="UTF-8" standalone="no"?><svg xmlns="http://www.w3.org/2000/svg" xmlns:xlink="http://www.w3.org/1999/xlink" contentScriptType="application/ecmascript" contentStyleType="text/css" height="327px" preserveAspectRatio="none" style="width:557px;height:327px;" version="1.1" viewBox="0 0 557 327" width="557px" zoomAndPan="magnify"><defs><filter height="300%" id="f1fj4dcbeyjbme" width="300%" x="-1" y="-1"><feGaussianBlur result="blurOut" stdDeviation="2.0"/><feColorMatrix in="blurOut" result="blurOut2" type="matrix" values="0 0 0 0 0 0 0 0 0 0 0 0 0 0 0 0 0 0 .4 0"/><feOffset dx="4.0" dy="4.0" in="blurOut2" result="blurOut3"/><feBlend in="SourceGraphic" in2="blurOut3" mode="normal"/></filter></defs><g><text fill="#000000" font-family="sans-serif" font-size="18" lengthAdjust="spacing" textLength="532" x="9" y="28.708">c12 Comprar Libro - Flujo alternativo - Libros no disponibles</text><rect fill="#FFFFFF" filter="url(#f1fj4dcbeyjbme)" height="71.2656" style="stroke:#A80036;stroke-width:1.0;" width="10" x="50.5" y="154.3828"/><rect fill="#FFFFFF" filter="url(#f1fj4dcbeyjbme)" height="71.2656" style="stroke:#A80036;stroke-width:1.0;" width="10" x="272.5" y="154.3828"/><line style="stroke:#A80036;stroke-width:1.0;stroke-dasharray:5.0,5.0;" x1="55.5" x2="55.5" y1="123.25" y2="243.6484"/><line style="stroke:#A80036;stroke-width:1.0;stroke-dasharray:5.0,5.0;" x1="277" x2="277" y1="123.25" y2="243.6484"/><text fill="#000000" font-family="sans-serif" font-size="14" lengthAdjust="spacing" textLength="48" x="28.5" y="119.9482">Cliente</text><ellipse cx="55.5" cy="49.9531" fill="#FEFECE" filter="url(#f1fj4dcbeyjbme)" rx="8" ry="8" style="stroke:#A80036;stroke-width:2.0;"/><path d="M55.5,57.9531 L55.5,84.9531 M42.5,65.9531 L68.5,65.9531 M55.5,84.9531 L42.5,99.9531 M55.5,84.9531 L68.5,99.9531 " fill="none" filter="url(#f1fj4dcbeyjbme)" style="stroke:#A80036;stroke-width:2.0;"/><text fill="#000000" font-family="sans-serif" font-size="14" lengthAdjust="spacing" textLength="48" x="28.5" y="255.6436">Cliente</text><ellipse cx="55.5" cy="268.9453" fill="#FEFECE" filter="url(#f1fj4dcbeyjbme)" rx="8" ry="8" style="stroke:#A80036;stroke-width:2.0;"/><path d="M55.5,276.9453 L55.5,303.9453 M42.5,284.9453 L68.5,284.9453 M55.5,303.9453 L42.5,318.9453 M55.5,303.9453 L68.5,318.9453 " fill="none" filter="url(#f1fj4dcbeyjbme)" style="stroke:#A80036;stroke-width:2.0;"/><rect fill="#FEFECE" filter="url(#f1fj4dcbeyjbme)" height="30.2969" style="stroke:#A80036;stroke-width:1.5;" width="69" x="241" y="87.9531"/><text fill="#000000" font-family="sans-serif" font-size="14" lengthAdjust="spacing" textLength="55" x="248" y="107.9482">Sistema</text><rect fill="#FEFECE" filter="url(#f1fj4dcbeyjbme)" height="30.2969" style="stroke:#A80036;stroke-width:1.5;" width="69" x="241" y="242.6484"/><text fill="#000000" font-family="sans-serif" font-size="14" lengthAdjust="spacing" textLength="55" x="248" y="262.6436">Sistema</text><rect fill="#FFFFFF" filter="url(#f1fj4dcbeyjbme)" height="71.2656" style="stroke:#A80036;stroke-width:1.0;" width="10" x="50.5" y="154.3828"/><rect fill="#FFFFFF" filter="url(#f1fj4dcbeyjbme)" height="71.2656" style="stroke:#A80036;stroke-width:1.0;" width="10" x="272.5" y="154.3828"/><polygon fill="#A80036" points="260.5,150.3828,270.5,154.3828,260.5,158.3828,264.5,154.3828" style="stroke:#A80036;stroke-width:1.0;"/><line style="stroke:#A80036;stroke-width:1.0;" x1="60.5" x2="266.5" y1="154.3828" y2="154.3828"/><text fill="#000000" font-family="sans-serif" font-size="13" lengthAdjust="spacing" textLength="198" x="67.5" y="149.3169">libros = iniciar_compra(cliente)</text><line style="stroke:#A80036;stroke-width:1.0;" x1="282.5" x2="324.5" y1="183.5156" y2="183.5156"/><line style="stroke:#A80036;stroke-width:1.0;" x1="324.5" x2="324.5" y1="183.5156" y2="196.5156"/><line style="stroke:#A80036;stroke-width:1.0;" x1="283.5" x2="324.5" y1="196.5156" y2="196.5156"/><polygon fill="#A80036" points="293.5,192.5156,283.5,196.5156,293.5,200.5156,289.5,196.5156" style="stroke:#A80036;stroke-width:1.0;"/><text fill="#000000" font-family="sans-serif" font-size="13" lengthAdjust="spacing" textLength="225" x="289.5" y="178.4497">libros = buscar_libros_disponibles()</text><polygon fill="#A80036" points="66.5,221.6484,56.5,225.6484,66.5,229.6484,62.5,225.6484" style="stroke:#A80036;stroke-width:1.0;"/><line style="stroke:#A80036;stroke-width:1.0;stroke-dasharray:2.0,2.0;" x1="60.5" x2="276.5" y1="225.6484" y2="225.6484"/><text fill="#000000" font-family="sans-serif" font-size="13" lengthAdjust="spacing" textLength="10" x="72.5" y="220.5825">[]</text><!--MD5=[2529c9e1c754078994eef0fc44d5e03e]
@startuml
title c12 Comprar Libro - Flujo alternativo - Libros no disponibles

actor Cliente as c
participant Sistema as s

c -> s : libros = iniciar_compra(cliente)
activate c
    activate s
        s -> s : libros = buscar_libros_disponibles()
        return []
    deactivate s
deactivate c
@enduml

PlantUML version 1.2021.5(Sun Apr 25 11:20:28 UTC 2021)
(GPL source distribution)
Java Runtime: OpenJDK Runtime Environment
JVM: OpenJDK 64-Bit Server VM
Default Encoding: UTF-8
Language: en
Country: null
--></g></svg>