<?xml version="1.0" encoding="UTF-8" standalone="no"?><svg xmlns="http://www.w3.org/2000/svg" xmlns:xlink="http://www.w3.org/1999/xlink" contentScriptType="application/ecmascript" contentStyleType="text/css" height="455px" preserveAspectRatio="none" style="width:557px;height:455px;" version="1.1" viewBox="0 0 557 455" width="557px" zoomAndPan="magnify"><defs><filter height="300%" id="f1oxqbyz7q1uou" width="300%" x="-1" y="-1"><feGaussianBlur result="blurOut" stdDeviation="2.0"/><feColorMatrix in="blurOut" result="blurOut2" type="matrix" values="0 0 0 0 0 0 0 0 0 0 0 0 0 0 0 0 0 0 .4 0"/><feOffset dx="4.0" dy="4.0" in="blurOut2" result="blurOut3"/><feBlend in="SourceGraphic" in2="blurOut3" mode="normal"/></filter></defs><g><text fill="#000000" font-family="sans-serif" font-size="18" lengthAdjust="spacing" textLength="190" x="186" y="28.708">c15 Cancelar Compra</text><rect fill="#FFFFFF" filter="url(#f1oxqbyz7q1uou)" height="198.6641" style="stroke:#A80036;stroke-width:1.0;" width="10" x="27" y="154.3828"/><rect fill="#FFFFFF" filter="url(#f1oxqbyz7q1uou)" height="71.2656" style="stroke:#A80036;stroke-width:1.0;" width="10" x="266" y="154.3828"/><rect fill="#FFFFFF" filter="url(#f1oxqbyz7q1uou)" height="98.2656" style="stroke:#A80036;stroke-width:1.0;" width="10" x="266" y="254.7813"/><line style="stroke:#A80036;stroke-width:1.0;stroke-dasharray:5.0,5.0;" x1="32" x2="32" y1="123.25" y2="371.0469"/><line style="stroke:#A80036;stroke-width:1.0;stroke-dasharray:5.0,5.0;" x1="270.5" x2="270.5" y1="123.25" y2="371.0469"/><text fill="#000000" font-family="sans-serif" font-size="14" lengthAdjust="spacing" textLength="48" x="5" y="119.9482">Cliente</text><ellipse cx="32" cy="49.9531" fill="#FEFECE" filter="url(#f1oxqbyz7q1uou)" rx="8" ry="8" style="stroke:#A80036;stroke-width:2.0;"/><path d="M32,57.9531 L32,84.9531 M19,65.9531 L45,65.9531 M32,84.9531 L19,99.9531 M32,84.9531 L45,99.9531 " fill="none" filter="url(#f1oxqbyz7q1uou)" style="stroke:#A80036;stroke-width:2.0;"/><text fill="#000000" font-family="sans-serif" font-size="14" lengthAdjust="spacing" textLength="48" x="5" y="383.042">Cliente</text><ellipse cx="32" cy="396.3438" fill="#FEFECE" filter="url(#f1oxqbyz7q1uou)" rx="8" ry="8" style="stroke:#A80036;stroke-width:2.0;"/><path d="M32,404.3438 L32,431.3438 M19,412.3438 L45,412.3438 M32,431.3438 L19,446.3438 M32,431.3438 L45,446.3438 " fill="none" filter="url(#f1oxqbyz7q1uou)" style="stroke:#A80036;stroke-width:2.0;"/><rect fill="#FEFECE" filter="url(#f1oxqbyz7q1uou)" height="30.2969" style="stroke:#A80036;stroke-width:1.5;" width="69" x="234.5" y="87.9531"/><text fill="#000000" font-family="sans-serif" font-size="14" lengthAdjust="spacing" textLength="55" x="241.5" y="107.9482">Sistema</text><rect fill="#FEFECE" filter="url(#f1oxqbyz7q1uou)" height="30.2969" style="stroke:#A80036;stroke-width:1.5;" width="69" x="234.5" y="370.0469"/><text fill="#000000" font-family="sans-serif" font-size="14" lengthAdjust="spacing" textLength="55" x="241.5" y="390.042">Sistema</text><rect fill="#FFFFFF" filter="url(#f1oxqbyz7q1uou)" height="198.6641" style="stroke:#A80036;stroke-width:1.0;" width="10" x="27" y="154.3828"/><rect fill="#FFFFFF" filter="url(#f1oxqbyz7q1uou)" height="71.2656" style="stroke:#A80036;stroke-width:1.0;" width="10" x="266" y="154.3828"/><rect fill="#FFFFFF" filter="url(#f1oxqbyz7q1uou)" height="98.2656" style="stroke:#A80036;stroke-width:1.0;" width="10" x="266" y="254.7813"/><polygon fill="#A80036" points="254,150.3828,264,154.3828,254,158.3828,258,154.3828" style="stroke:#A80036;stroke-width:1.0;"/><line style="stroke:#A80036;stroke-width:1.0;" x1="37" x2="260" y1="154.3828" y2="154.3828"/><text fill="#000000" font-family="sans-serif" font-size="13" lengthAdjust="spacing" textLength="215" x="44" y="149.3169">libros = cancelar_compra(cliente)</text><line style="stroke:#A80036;stroke-width:1.0;" x1="276" x2="318" y1="183.5156" y2="183.5156"/><line style="stroke:#A80036;stroke-width:1.0;" x1="318" x2="318" y1="183.5156" y2="196.5156"/><line style="stroke:#A80036;stroke-width:1.0;" x1="277" x2="318" y1="196.5156" y2="196.5156"/><polygon fill="#A80036" points="287,192.5156,277,196.5156,287,200.5156,283,196.5156" style="stroke:#A80036;stroke-width:1.0;"/><text fill="#000000" font-family="sans-serif" font-size="13" lengthAdjust="spacing" textLength="267" x="283" y="178.4497">compras = buscar_compras_a_cancelar()</text><polygon fill="#A80036" points="48,221.6484,38,225.6484,48,229.6484,44,225.6484" style="stroke:#A80036;stroke-width:1.0;"/><line style="stroke:#A80036;stroke-width:1.0;stroke-dasharray:2.0,2.0;" x1="42" x2="270" y1="225.6484" y2="225.6484"/><text fill="#000000" font-family="sans-serif" font-size="13" lengthAdjust="spacing" textLength="56" x="54" y="220.5825">compras</text><polygon fill="#A80036" points="254,250.7813,264,254.7813,254,258.7813,258,254.7813" style="stroke:#A80036;stroke-width:1.0;"/><line style="stroke:#A80036;stroke-width:1.0;" x1="37" x2="260" y1="254.7813" y2="254.7813"/><text fill="#000000" font-family="sans-serif" font-size="13" lengthAdjust="spacing" textLength="187" x="44" y="249.7153">seleccionar_compra(compra)</text><line style="stroke:#A80036;stroke-width:1.0;" x1="276" x2="318" y1="283.9141" y2="283.9141"/><line style="stroke:#A80036;stroke-width:1.0;" x1="318" x2="318" y1="283.9141" y2="296.9141"/><line style="stroke:#A80036;stroke-width:1.0;" x1="277" x2="318" y1="296.9141" y2="296.9141"/><polygon fill="#A80036" points="287,292.9141,277,296.9141,287,300.9141,283,296.9141" style="stroke:#A80036;stroke-width:1.0;"/><text fill="#000000" font-family="sans-serif" font-size="13" lengthAdjust="spacing" textLength="162" x="283" y="278.8481">actualizar_stock(compra)</text><line style="stroke:#A80036;stroke-width:1.0;" x1="276" x2="318" y1="326.0469" y2="326.0469"/><line style="stroke:#A80036;stroke-width:1.0;" x1="318" x2="318" y1="326.0469" y2="339.0469"/><line style="stroke:#A80036;stroke-width:1.0;" x1="277" x2="318" y1="339.0469" y2="339.0469"/><polygon fill="#A80036" points="287,335.0469,277,339.0469,287,343.0469,283,339.0469" style="stroke:#A80036;stroke-width:1.0;"/><text fill="#000000" font-family="sans-serif" font-size="13" lengthAdjust="spacing" textLength="169" x="283" y="320.981">cancelar_compra(compra)</text><polygon fill="#A80036" points="43,349.0469,33,353.0469,43,357.0469,39,353.0469" style="stroke:#A80036;stroke-width:1.0;"/><line style="stroke:#A80036;stroke-width:1.0;stroke-dasharray:2.0,2.0;" x1="37" x2="270" y1="353.0469" y2="353.0469"/><!--MD5=[517a67a21b6deae42e28bca94d5e8892]
@startuml
title c15 Cancelar Compra

actor Cliente as c
participant Sistema as s

c -> s : libros = cancelar_compra(cliente)
activate c
    activate s
    s -> s : compras = buscar_compras_a_cancelar()
    return compras
    deactivate s

    c -> s : seleccionar_compra(compra)
    activate s
        s -> s : actualizar_stock(compra)
        s -> s : cancelar_compra(compra)
        return
    deactivate s

deactivate c
@enduml

PlantUML version 1.2021.5(Sun Apr 25 11:20:28 UTC 2021)
(GPL source distribution)
Java Runtime: OpenJDK Runtime Environment
JVM: OpenJDK 64-Bit Server VM
Default Encoding: UTF-8
Language: en
Country: null
--></g></svg>