<?xml version="1.0" encoding="UTF-8" standalone="no"?><svg xmlns="http://www.w3.org/2000/svg" xmlns:xlink="http://www.w3.org/1999/xlink" contentScriptType="application/ecmascript" contentStyleType="text/css" height="468px" preserveAspectRatio="none" style="width:750px;height:468px;" version="1.1" viewBox="0 0 750 468" width="750px" zoomAndPan="magnify"><defs><filter height="300%" id="f187ljdimtrvtb" width="300%" x="-1" y="-1"><feGaussianBlur result="blurOut" stdDeviation="2.0"/><feColorMatrix in="blurOut" result="blurOut2" type="matrix" values="0 0 0 0 0 0 0 0 0 0 0 0 0 0 0 0 0 0 .4 0"/><feOffset dx="4.0" dy="4.0" in="blurOut2" result="blurOut3"/><feBlend in="SourceGraphic" in2="blurOut3" mode="normal"/></filter></defs><g><text fill="#000000" font-family="sans-serif" font-size="18" lengthAdjust="spacing" textLength="161" x="299.75" y="28.708">c17 Ingresar Libro</text><rect fill="#FFFFFF" filter="url(#f187ljdimtrvtb)" height="211.6641" style="stroke:#A80036;stroke-width:1.0;" width="10" x="37.5" y="154.3828"/><rect fill="#FFFFFF" filter="url(#f187ljdimtrvtb)" height="30" style="stroke:#A80036;stroke-width:1.0;" width="10" x="221.5" y="154.3828"/><rect fill="#FFFFFF" filter="url(#f187ljdimtrvtb)" height="152.5313" style="stroke:#A80036;stroke-width:1.0;" width="10" x="221.5" y="213.5156"/><line style="stroke:#A80036;stroke-width:1.0;stroke-dasharray:5.0,5.0;" x1="42" x2="42" y1="123.25" y2="384.0469"/><line style="stroke:#A80036;stroke-width:1.0;stroke-dasharray:5.0,5.0;" x1="226" x2="226" y1="123.25" y2="384.0469"/><text fill="#000000" font-family="sans-serif" font-size="14" lengthAdjust="spacing" textLength="69" x="5" y="119.9482">Empleado</text><ellipse cx="42.5" cy="49.9531" fill="#FEFECE" filter="url(#f187ljdimtrvtb)" rx="8" ry="8" style="stroke:#A80036;stroke-width:2.0;"/><path d="M42.5,57.9531 L42.5,84.9531 M29.5,65.9531 L55.5,65.9531 M42.5,84.9531 L29.5,99.9531 M42.5,84.9531 L55.5,99.9531 " fill="none" filter="url(#f187ljdimtrvtb)" style="stroke:#A80036;stroke-width:2.0;"/><text fill="#000000" font-family="sans-serif" font-size="14" lengthAdjust="spacing" textLength="69" x="5" y="396.042">Empleado</text><ellipse cx="42.5" cy="409.3438" fill="#FEFECE" filter="url(#f187ljdimtrvtb)" rx="8" ry="8" style="stroke:#A80036;stroke-width:2.0;"/><path d="M42.5,417.3438 L42.5,444.3438 M29.5,425.3438 L55.5,425.3438 M42.5,444.3438 L29.5,459.3438 M42.5,444.3438 L55.5,459.3438 " fill="none" filter="url(#f187ljdimtrvtb)" style="stroke:#A80036;stroke-width:2.0;"/><rect fill="#FEFECE" filter="url(#f187ljdimtrvtb)" height="30.2969" style="stroke:#A80036;stroke-width:1.5;" width="69" x="190" y="87.9531"/><text fill="#000000" font-family="sans-serif" font-size="14" lengthAdjust="spacing" textLength="55" x="197" y="107.9482">Sistema</text><rect fill="#FEFECE" filter="url(#f187ljdimtrvtb)" height="30.2969" style="stroke:#A80036;stroke-width:1.5;" width="69" x="190" y="383.0469"/><text fill="#000000" font-family="sans-serif" font-size="14" lengthAdjust="spacing" textLength="55" x="197" y="403.042">Sistema</text><rect fill="#FFFFFF" filter="url(#f187ljdimtrvtb)" height="211.6641" style="stroke:#A80036;stroke-width:1.0;" width="10" x="37.5" y="154.3828"/><rect fill="#FFFFFF" filter="url(#f187ljdimtrvtb)" height="30" style="stroke:#A80036;stroke-width:1.0;" width="10" x="221.5" y="154.3828"/><rect fill="#FFFFFF" filter="url(#f187ljdimtrvtb)" height="152.5313" style="stroke:#A80036;stroke-width:1.0;" width="10" x="221.5" y="213.5156"/><polygon fill="#A80036" points="209.5,150.3828,219.5,154.3828,209.5,158.3828,213.5,154.3828" style="stroke:#A80036;stroke-width:1.0;"/><line style="stroke:#A80036;stroke-width:1.0;" x1="47.5" x2="215.5" y1="154.3828" y2="154.3828"/><text fill="#000000" font-family="sans-serif" font-size="13" lengthAdjust="spacing" textLength="160" x="54.5" y="149.3169">ingresar_libro(empleado)</text><polygon fill="#A80036" points="209.5,209.5156,219.5,213.5156,209.5,217.5156,213.5,213.5156" style="stroke:#A80036;stroke-width:1.0;"/><line style="stroke:#A80036;stroke-width:1.0;" x1="47.5" x2="215.5" y1="213.5156" y2="213.5156"/><text fill="#000000" font-family="sans-serif" font-size="13" lengthAdjust="spacing" textLength="150" x="54.5" y="208.4497">datos_libro(datos_libro)</text><line style="stroke:#A80036;stroke-width:1.0;" x1="231.5" x2="273.5" y1="248.7148" y2="248.7148"/><line style="stroke:#A80036;stroke-width:1.0;" x1="273.5" x2="273.5" y1="248.7148" y2="261.7148"/><line style="stroke:#A80036;stroke-width:1.0;" x1="232.5" x2="273.5" y1="261.7148" y2="261.7148"/><polygon fill="#A80036" points="242.5,257.7148,232.5,261.7148,242.5,265.7148,238.5,261.7148" style="stroke:#A80036;stroke-width:1.0;"/><text fill="#000000" font-family="sans-serif" font-size="13" lengthAdjust="spacing" textLength="258" x="238.5" y="243.6489">libro = crear_o_buscar_libro(datos_libro)</text><path d="M508,226.5156 L508,266.5156 L741,266.5156 L741,236.5156 L731,226.5156 L508,226.5156 " fill="#FBFB77" filter="url(#f187ljdimtrvtb)" style="stroke:#A80036;stroke-width:1.0;"/><path d="M731,226.5156 L731,236.5156 L741,236.5156 L731,226.5156 " fill="#FBFB77" style="stroke:#A80036;stroke-width:1.0;"/><text fill="#000000" font-family="sans-serif" font-size="13" lengthAdjust="spacing" textLength="190" x="514" y="243.5825">aca se encuentran los 2 flujos</text><text fill="#000000" font-family="sans-serif" font-size="13" lengthAdjust="spacing" textLength="212" x="514" y="258.7153">el flujo normal y el alternativo 3.1</text><line style="stroke:#A80036;stroke-width:1.0;" x1="231.5" x2="273.5" y1="296.9141" y2="296.9141"/><line style="stroke:#A80036;stroke-width:1.0;" x1="273.5" x2="273.5" y1="296.9141" y2="309.9141"/><line style="stroke:#A80036;stroke-width:1.0;" x1="232.5" x2="273.5" y1="309.9141" y2="309.9141"/><polygon fill="#A80036" points="242.5,305.9141,232.5,309.9141,242.5,313.9141,238.5,309.9141" style="stroke:#A80036;stroke-width:1.0;"/><text fill="#000000" font-family="sans-serif" font-size="13" lengthAdjust="spacing" textLength="140" x="238.5" y="291.8481">actualizar_stock(libro)</text><line style="stroke:#A80036;stroke-width:1.0;" x1="231.5" x2="273.5" y1="339.0469" y2="339.0469"/><line style="stroke:#A80036;stroke-width:1.0;" x1="273.5" x2="273.5" y1="339.0469" y2="352.0469"/><line style="stroke:#A80036;stroke-width:1.0;" x1="232.5" x2="273.5" y1="352.0469" y2="352.0469"/><polygon fill="#A80036" points="242.5,348.0469,232.5,352.0469,242.5,356.0469,238.5,352.0469" style="stroke:#A80036;stroke-width:1.0;"/><text fill="#000000" font-family="sans-serif" font-size="13" lengthAdjust="spacing" textLength="144" x="238.5" y="333.981">notificar_clientes(libro)</text><polygon fill="#A80036" points="53.5,362.0469,43.5,366.0469,53.5,370.0469,49.5,366.0469" style="stroke:#A80036;stroke-width:1.0;"/><line style="stroke:#A80036;stroke-width:1.0;stroke-dasharray:2.0,2.0;" x1="47.5" x2="225.5" y1="366.0469" y2="366.0469"/><!--MD5=[2654d405edca47c5fdee2e4343aaaf6a]
@startuml
title c17 Ingresar Libro

actor Empleado as e
participant Sistema as s

e -> s : ingresar_libro(empleado)
activate e
    activate s
    deactivate s

    e -> s : datos_libro(datos_libro)
    activate s
        s -> s : libro = crear_o_buscar_libro(datos_libro)
        note right: aca se encuentran los 2 flujos\nel flujo normal y el alternativo 3.1

        s -> s : actualizar_stock(libro)
        s -> s : notificar_clientes(libro)
        return 
    deactivate s
deactivate e
@enduml

PlantUML version 1.2021.5(Sun Apr 25 11:20:28 UTC 2021)
(GPL source distribution)
Java Runtime: OpenJDK Runtime Environment
JVM: OpenJDK 64-Bit Server VM
Default Encoding: UTF-8
Language: en
Country: null
--></g></svg>